HIERARCHY
ROOT Hips
{
  OFFSET -178.699 92.7142 1333.98
  CHANNELS 6 Xposition Yposition Zposition Zrotation Xrotation Yrotation
  JOINT Spine
  {
    OFFSET 0 8 0
    CHANNELS 6 Xposition Yposition Zposition Zrotation Xrotation Yrotation
    JOINT Spine1
    {
      OFFSET 0 8 0
      CHANNELS 6 Xposition Yposition Zposition Zrotation Xrotation Yrotation
      JOINT Spine2
      {
        OFFSET 0 8 0
        CHANNELS 6 Xposition Yposition Zposition Zrotation Xrotation Yrotation
        JOINT Spine3
        {
          OFFSET 0 8 0
          CHANNELS 6 Xposition Yposition Zposition Zrotation Xrotation Yrotation
          JOINT Neck
          {
            OFFSET 0 17 0
            CHANNELS 6 Xposition Yposition Zposition Zrotation Xrotation Yrotation
            JOINT Head
            {
              OFFSET 0 10.8 0
              CHANNELS 6 Xposition Yposition Zposition Zrotation Xrotation Yrotation
              End Site
              {
                OFFSET 0 20.25 0
              }
            }
          }
          JOINT LeftShoulder
          {
            OFFSET 5 17 0
            CHANNELS 6 Xposition Yposition Zposition Zrotation Xrotation Yrotation
            JOINT LeftShoulder2
            {
              OFFSET 6.45 0 0
              CHANNELS 6 Xposition Yposition Zposition Zrotation Xrotation Yrotation
              JOINT LeftArm
              {
                OFFSET 6.45 0 0
                CHANNELS 6 Xposition Yposition Zposition Zrotation Xrotation Yrotation
                JOINT LeftForeArm
                {
                  OFFSET 0 -32.4 -2
                  CHANNELS 6 Xposition Yposition Zposition Zrotation Xrotation Yrotation
                  JOINT LeftHand
                  {
                    OFFSET 0 -25.65 2
                    CHANNELS 6 Xposition Yposition Zposition Zrotation Xrotation Yrotation
                    JOINT LeftHandThumb1
                    {
                      OFFSET -0.5 -1.5 2.65
                      CHANNELS 6 Xposition Yposition Zposition Zrotation Xrotation Yrotation
                      JOINT LeftHandThumb2
                      {
                        OFFSET 0 -3.8 3.7
                        CHANNELS 6 Xposition Yposition Zposition Zrotation Xrotation Yrotation
                        JOINT LeftHandThumb3
                        {
                          OFFSET 0 -3 2.7
                          CHANNELS 6 Xposition Yposition Zposition Zrotation Xrotation Yrotation
                          End Site
                          {
                            OFFSET 0 -2.3 1.8
                          }
                        }
                      }
                    }
                    JOINT LeftHandIndex
                    {
                      OFFSET 0 -1.9 1.6
                      CHANNELS 6 Xposition Yposition Zposition Zrotation Xrotation Yrotation
                      JOINT LeftHandIndex1
                      {
                        OFFSET 0 -8.3 1.9
                        CHANNELS 6 Xposition Yposition Zposition Zrotation Xrotation Yrotation
                        JOINT LeftHandIndex2
                        {
                          OFFSET 0 -4.5 0
                          CHANNELS 6 Xposition Yposition Zposition Zrotation Xrotation Yrotation
                          JOINT LeftHandIndex3
                          {
                            OFFSET 0 -3.4 0
                            CHANNELS 6 Xposition Yposition Zposition Zrotation Xrotation Yrotation
                            End Site
                            {
                              OFFSET 0 -2.6 0
                            }
                          }
                        }
                      }
                    }
                    JOINT LeftHandMiddle
                    {
                      OFFSET -0.25 -2.2 0.4
                      CHANNELS 6 Xposition Yposition Zposition Zrotation Xrotation Yrotation
                      JOINT LeftHandMiddle1
                      {
                        OFFSET 0 -8.3 1
                        CHANNELS 6 Xposition Yposition Zposition Zrotation Xrotation Yrotation
                        JOINT LeftHandMiddle2
                        {
                          OFFSET 0 -4.65 0
                          CHANNELS 6 Xposition Yposition Zposition Zrotation Xrotation Yrotation
                          JOINT LeftHandMiddle3
                          {
                            OFFSET 0 -3.3 0
                            CHANNELS 6 Xposition Yposition Zposition Zrotation Xrotation Yrotation
                            End Site
                            {
                              OFFSET 0 -2.7 0
                            }
                          }
                        }
                      }
                    }
                    JOINT LeftHandRing
                    {
                      OFFSET -0.5 -2.15 -0.8
                      CHANNELS 6 Xposition Yposition Zposition Zrotation Xrotation Yrotation
                      JOINT LeftHandRing1
                      {
                        OFFSET 0 -7.75 -0.2
                        CHANNELS 6 Xposition Yposition Zposition Zrotation Xrotation Yrotation
                        JOINT LeftHandRing2
                        {
                          OFFSET 0 -3.8 0
                          CHANNELS 6 Xposition Yposition Zposition Zrotation Xrotation Yrotation
                          JOINT LeftHandRing3
                          {
                            OFFSET 0 -3.4 0
                            CHANNELS 6 Xposition Yposition Zposition Zrotation Xrotation Yrotation
                            End Site
                            {
                              OFFSET 0 -2.6 0
                            }
                          }
                        }
                      }
                    }
                    JOINT LeftHandPinky
                    {
                      OFFSET -0.75 -1.75 -1.85
                      CHANNELS 6 Xposition Yposition Zposition Zrotation Xrotation Yrotation
                      JOINT LeftHandPinky1
                      {
                        OFFSET 0 -7.15 -1
                        CHANNELS 6 Xposition Yposition Zposition Zrotation Xrotation Yrotation
                        JOINT LeftHandPinky2
                        {
                          OFFSET 0 -3 0
                          CHANNELS 6 Xposition Yposition Zposition Zrotation Xrotation Yrotation
                          JOINT LeftHandPinky3
                          {
                            OFFSET 0 -2.35 0
                            CHANNELS 6 Xposition Yposition Zposition Zrotation Xrotation Yrotation
                            End Site
                            {
                              OFFSET 0 -2.1 0
                            }
                          }
                        }
                      }
                    }
                  }
                }
              }
            }
          }
          JOINT RightShoulder
          {
            OFFSET -5 17 0
            CHANNELS 6 Xposition Yposition Zposition Zrotation Xrotation Yrotation
            JOINT RightShoulder2
            {
              OFFSET -6.45 0 0
              CHANNELS 6 Xposition Yposition Zposition Zrotation Xrotation Yrotation
              JOINT RightArm
              {
                OFFSET -6.45 0 0
                CHANNELS 6 Xposition Yposition Zposition Zrotation Xrotation Yrotation
                JOINT RightForeArm
                {
                  OFFSET 0 -32.4 -2
                  CHANNELS 6 Xposition Yposition Zposition Zrotation Xrotation Yrotation
                  JOINT RightHand
                  {
                    OFFSET 0 -25.65 2
                    CHANNELS 6 Xposition Yposition Zposition Zrotation Xrotation Yrotation
                    JOINT RightHandThumb1
                    {
                      OFFSET 0.5 -1.5 2.65
                      CHANNELS 6 Xposition Yposition Zposition Zrotation Xrotation Yrotation
                      JOINT RightHandThumb2
                      {
                        OFFSET 0 -3.8 3.7
                        CHANNELS 6 Xposition Yposition Zposition Zrotation Xrotation Yrotation
                        JOINT RightHandThumb3
                        {
                          OFFSET 0 -3 2.7
                          CHANNELS 6 Xposition Yposition Zposition Zrotation Xrotation Yrotation
                          End Site
                          {
                            OFFSET 0 -2.3 1.8
                          }
                        }
                      }
                    }
                    JOINT RightHandIndex
                    {
                      OFFSET 0 -1.9 1.6
                      CHANNELS 6 Xposition Yposition Zposition Zrotation Xrotation Yrotation
                      JOINT RightHandIndex1
                      {
                        OFFSET 0 -8.3 1.9
                        CHANNELS 6 Xposition Yposition Zposition Zrotation Xrotation Yrotation
                        JOINT RightHandIndex2
                        {
                          OFFSET 0 -4.5 0
                          CHANNELS 6 Xposition Yposition Zposition Zrotation Xrotation Yrotation
                          JOINT RightHandIndex3
                          {
                            OFFSET 0 -3.4 0
                            CHANNELS 6 Xposition Yposition Zposition Zrotation Xrotation Yrotation
                            End Site
                            {
                              OFFSET 0 -2.6 0
                            }
                          }
                        }
                      }
                    }
                    JOINT RightHandMiddle
                    {
                      OFFSET 0.25 -2.2 0.4
                      CHANNELS 6 Xposition Yposition Zposition Zrotation Xrotation Yrotation
                      JOINT RightHandMiddle1
                      {
                        OFFSET 0 -8.3 1
                        CHANNELS 6 Xposition Yposition Zposition Zrotation Xrotation Yrotation
                        JOINT RightHandMiddle2
                        {
                          OFFSET 0 -4.65 0
                          CHANNELS 6 Xposition Yposition Zposition Zrotation Xrotation Yrotation
                          JOINT RightHandMiddle3
                          {
                            OFFSET 0 -3.3 0
                            CHANNELS 6 Xposition Yposition Zposition Zrotation Xrotation Yrotation
                            End Site
                            {
                              OFFSET 0 -2.7 0
                            }
                          }
                        }
                      }
                    }
                    JOINT RightHandRing
                    {
                      OFFSET 0.5 -2.15 -0.8
                      CHANNELS 6 Xposition Yposition Zposition Zrotation Xrotation Yrotation
                      JOINT RightHandRing1
                      {
                        OFFSET 0 -7.75 -0.2
                        CHANNELS 6 Xposition Yposition Zposition Zrotation Xrotation Yrotation
                        JOINT RightHandRing2
                        {
                          OFFSET 0 -3.8 0
                          CHANNELS 6 Xposition Yposition Zposition Zrotation Xrotation Yrotation
                          JOINT RightHandRing3
                          {
                            OFFSET 0 -3.4 0
                            CHANNELS 6 Xposition Yposition Zposition Zrotation Xrotation Yrotation
                            End Site
                            {
                              OFFSET 0 -2.6 0
                            }
                          }
                        }
                      }
                    }
                    JOINT RightHandPinky
                    {
                      OFFSET 0.75 -1.75 -1.85
                      CHANNELS 6 Xposition Yposition Zposition Zrotation Xrotation Yrotation
                      JOINT RightHandPinky1
                      {
                        OFFSET 0 -7.15 -1
                        CHANNELS 6 Xposition Yposition Zposition Zrotation Xrotation Yrotation
                        JOINT RightHandPinky2
                        {
                          OFFSET 0 -3 0
                          CHANNELS 6 Xposition Yposition Zposition Zrotation Xrotation Yrotation
                          JOINT RightHandPinky3
                          {
                            OFFSET 0 -2.35 0
                            CHANNELS 6 Xposition Yposition Zposition Zrotation Xrotation Yrotation
                            End Site
                            {
                              OFFSET 0 -2.1 0
                            }
                          }
                        }
                      }
                    }
                  }
                }
              }
            }
          }
        }
      }
    }
  }
  JOINT LeftUpLeg
  {
    OFFSET 8 0 0
    CHANNELS 6 Xposition Yposition Zposition Zrotation Xrotation Yrotation
    JOINT LeftLeg
    {
      OFFSET 0 -45 -1
      CHANNELS 6 Xposition Yposition Zposition Zrotation Xrotation Yrotation
      JOINT LeftFoot
      {
        OFFSET 0 -41 -2
        CHANNELS 6 Xposition Yposition Zposition Zrotation Xrotation Yrotation
        JOINT LeftToeBase
        {
          OFFSET 0 -7.5 12.5
          CHANNELS 6 Xposition Yposition Zposition Zrotation Xrotation Yrotation
          JOINT LeftFootToe
          {
            OFFSET 0 0 4
            CHANNELS 6 Xposition Yposition Zposition Zrotation Xrotation Yrotation
            End Site
            {
              OFFSET 0 0 0
            }
          }
        }
      }
    }
  }
  JOINT RightUpLeg
  {
    OFFSET -8 0 0
    CHANNELS 6 Xposition Yposition Zposition Zrotation Xrotation Yrotation
    JOINT RightLeg
    {
      OFFSET 0 -45 -1
      CHANNELS 6 Xposition Yposition Zposition Zrotation Xrotation Yrotation
      JOINT RightFoot
      {
        OFFSET 0 -41 -2
        CHANNELS 6 Xposition Yposition Zposition Zrotation Xrotation Yrotation
        JOINT RightToeBase
        {
          OFFSET 0 -7.5 12.5
          CHANNELS 6 Xposition Yposition Zposition Zrotation Xrotation Yrotation
          JOINT RightFootToe
          {
            OFFSET 0 0 4
            CHANNELS 6 Xposition Yposition Zposition Zrotation Xrotation Yrotation
            End Site
            {
              OFFSET 0 0 0
            }
          }
        }
      }
    }
  }
}
MOTION
Frames:	3
Frame Time:	0.0111111
-178.676 92.7913 1334.05 -1.32939 -1.6825 123.935 1.13687e-13 8 0 4.24816 18.5173 -10.7557 0 8 0 -1.04788 5.33247 4.19776 2.27374e-13 8 0 -0.47494 2.6782 2.08628 0 8 1.13687e-13 -0.474004 2.67344 2.08254 -2.27374e-13 17 1.13687e-13 1.26755 1.70257 -0.0241805 4.54747e-13 10.8 -1.13687e-13 2.96251 3.97208 -0.115223 5 17 -1.13687e-13 -4.25313 -0.320525 -0.871347 6.45 0 1.13687e-13 0.46883 -0.508917 -0.729927 6.45 0 2.27374e-13 48.9984 -24.7183 30.408 2.27374e-13 -32.4 -2 -29.785 -49.6471 -75.4185 -5.68434e-14 -25.65 2 31.7083 -20.9095 -15.9943 -0.5 -1.5 2.65 -35.0568 -36.4655 54.8801 4.54747e-13 -3.8 3.7 -0.0254576 21.6247 -0.0015573 0 -3 2.7 -0.00263024 34.6624 0.00526858 0 -1.9 1.6 1.59028e-15 0 1.59028e-15 5.68434e-14 -8.3 1.9 -37.0511 7.40388 2.92897 -2.27374e-13 -4.5 -1.13687e-13 -86.7654 -0.00135954 -0.00358256 0 -3.4 1.13687e-13 -80.1453 0.00525266 0.000352637 -0.25 -2.2 0.4 1.59028e-15 0 1.59028e-15 2.27374e-13 -8.3 1 -59.3627 8.34146 7.42912 -5.68434e-14 -4.65 -1.13687e-13 -54.7983 -0.00107883 0.00475689 0 -3.3 0 -90.0002 -0.000516187 -1.35174e-14 -0.5 -2.15 -0.8 1.59028e-15 0 1.59028e-15 -2.27374e-13 -7.75 -0.2 -67.722 6.04237 9.12369 -1.13687e-13 -3.8 1.13687e-13 -58.4806 0.00125741 -0.00147006 0 -3.4 0 -90.0002 0.00281162 -0 -0.75 -1.75 -1.85 1.59028e-15 0 1.59028e-15 0 -7.15 -1 -82.7741 0.930144 11.3451 0 -3 -1.13687e-13 -38.7243 -0.012846 -0.00306435 0 -2.35 -1.13687e-13 -27.3132 0.00405492 -0.00228952 -5 17 1.13687e-13 0.0605475 -3.46096 -2.19968 -6.45 8.52651e-14 0 -1.17521 0.00547834 0.674447 -6.45 0 0 -3.48146 -23.66 34.1075 0 -32.4 -2 47.7806 -82.8654 70.7742 5.68434e-14 -25.65 2 -61.5485 -9.77905 48.4649 0.5 -1.5 2.65 79.7249 27.8384 -109.001 0 -3.8 3.7 0.594149 22.5028 0.0287705 -2.27374e-13 -3 2.7 0.0857279 56.4379 -0.0684645 -1.13687e-13 -1.9 1.6 -4.77083e-15 -9.54166e-15 -3.18055e-15 1.13687e-13 -8.3 1.9 31.5763 10.6546 -3.38273 -5.68434e-14 -4.5 -2.27374e-13 -2.16016e-09 0.000497044 0.000249009 -5.68434e-14 -3.4 -2.27374e-13 5.90929e-08 -0.00765945 0.000442038 0.25 -2.2 0.4 -4.77083e-15 -9.54166e-15 -3.18055e-15 0 -8.3 1 28.1616 13.4073 -3.97682 -5.68434e-14 -4.65 -2.27374e-13 -9.5626e-13 4.48547e-06 1.21743e-05 0 -3.3 2.27374e-13 -1.02515e-12 4.86153e-06 1.21101e-05 0.5 -2.15 -0.8 -4.77083e-15 -9.54166e-15 -3.18055e-15 0 -7.75 -0.2 30.116 12.0045 -4.29331 0 -3.8 0 2.74012 -0.000105883 0.00419647 -5.68434e-14 -3.4 0 2.64006 0.000891835 0.0067084 0.75 -1.75 -1.85 -4.77083e-15 -9.54166e-15 -3.18055e-15 0 -7.15 -1 25.7377 9.63513 -3.21114 0 -3 0 23.066 -0.000940788 0.0058549 -5.68434e-14 -2.35 -2.27374e-13 17.8517 0.00129213 0.00103918 8 -2.13163e-14 0 -0.519136 -11.0621 -22.2004 0 -45 -1 -0.20527 14.1293 2.57952 -4.54747e-13 -41 -2 -2.35288 -5.22706 24.7364 0 -7.5 12.5 -1.29737e-19 0.000294304 6.36111e-15 -1.13687e-13 0 4 -1.68482 -2.62423 43.6099 -8 -1.42109e-14 1.13687e-13 -2.71129 -10.5266 16.8483 1.13687e-13 -45 -1 0.0139433 7.01317 -0.645968 -1.13687e-13 -41 -2 5.66 0.202338 1.76411 0 -7.5 12.5 -1.94126e-18 1.28123e-17 -0 1.13687e-13 0 4 -0.00876676 3.63034 18.5593 
-178.672 92.8636 1334.14 -1.41932 -1.49378 123.996 0 8 1.13687e-13 4.04465 18.4961 -10.7849 0 8 0 -1.00905 5.34489 4.15722 0 8 0 -0.45589 2.68394 2.06643 -2.27374e-13 8 0 -0.454978 2.67921 2.06272 2.27374e-13 17 1.13687e-13 1.24173 1.765 -0.044271 2.27374e-13 10.8 1.13687e-13 2.90345 4.11715 -0.163116 5 17 0 -4.17791 -0.351923 -0.843593 6.45 -5.68434e-14 1.13687e-13 0.474998 -0.521332 -0.735928 6.45 0 0 48.9984 -24.7183 30.408 1.13687e-13 -32.4 -2 -29.8058 -49.6528 -75.4184 -1.13687e-13 -25.65 2 31.6657 -20.8913 -16.0341 -0.5 -1.5 2.65 -34.8267 -36.5616 55.0274 0 -3.8 3.7 -0.0254547 21.724 -0.00155837 2.27374e-13 -3 2.7 -0.00266572 34.9786 0.00528884 0 -1.9 1.6 -1.76556e-31 3.18055e-15 3.18055e-15 0 -8.3 1.9 -37.1473 7.49978 2.97116 -2.55795e-13 -4.5 3.41061e-13 -86.7116 -0.00135954 -0.00358256 1.13687e-13 -3.4 1.13687e-13 -80.0044 0.00525266 0.000352637 -0.25 -2.2 0.4 -1.76556e-31 3.18055e-15 3.18055e-15 1.7053e-13 -8.3 1 -59.5081 8.37794 7.47584 0 -4.65 1.13687e-13 -54.7091 -0.00107883 0.00475689 0 -3.3 -1.13687e-13 -90.0002 -0.000516187 -3.83654e-14 -0.5 -2.15 -0.8 -1.76556e-31 3.18055e-15 3.18055e-15 -2.27374e-13 -7.75 -0.2 -67.8426 6.04195 9.14861 -2.27374e-13 -3.8 0 -58.4079 0.00125741 -0.00147006 -1.13687e-13 -3.4 1.13687e-13 -90.0002 0.00281162 -1.43125e-14 -0.75 -1.75 -1.85 -1.76556e-31 3.18055e-15 3.18055e-15 -5.68434e-14 -7.15 -1 -82.863 0.877463 11.3449 0 -3 1.13687e-13 -38.6089 -0.012846 -0.00306435 0 -2.35 1.13687e-13 -27.2434 0.00405492 -0.00228952 -5 17 1.13687e-13 -0.0627212 -3.51484 -2.15842 -6.45 0 1.13687e-13 -1.17514 -0.000162084 0.69051 -6.45 -5.68434e-14 1.13687e-13 -3.08588 -24.41 34.332 5.68434e-14 -32.4 -2 43.8694 -82.2199 66.6274 2.84217e-14 -25.65 2 -61.4734 -10.1713 48.4324 0.5 -1.5 2.65 80.1846 28.0074 -109.608 0 -3.8 3.7 0.594196 22.417 0.0287527 0 -3 2.7 0.0857279 56.4379 -0.0684645 -1.13687e-13 -1.9 1.6 1.59028e-15 -6.36111e-15 3.18055e-15 -1.13687e-13 -8.3 1.9 31.4949 10.5558 -3.34432 0 -4.5 2.27374e-13 -2.16018e-09 0.000497044 0.000249009 -5.68434e-14 -3.4 -4.54747e-13 5.90929e-08 -0.00765945 0.000442038 0.25 -2.2 0.4 1.59028e-15 -6.36111e-15 3.18055e-15 0 -8.3 1 28.0703 13.3036 -3.93391 -5.68434e-14 -4.65 -2.27374e-13 -9.57056e-13 4.48547e-06 1.21743e-05 0 -3.3 2.27374e-13 -1.02913e-12 4.86153e-06 1.21101e-05 0.5 -2.15 -0.8 1.59028e-15 -6.36111e-15 3.18055e-15 -1.13687e-13 -7.75 -0.2 29.9964 11.9314 -4.25037 0 -3.8 0 2.75995 -0.000105883 0.00419647 -5.68434e-14 -3.4 0 2.65831 0.000891835 0.0067084 0.75 -1.75 -1.85 1.59028e-15 -6.36111e-15 3.18055e-15 1.13687e-13 -7.15 -1 25.6412 9.57214 -3.17834 5.68434e-14 -3 0 23.103 -0.000940788 0.0058549 -5.68434e-14 -2.35 -4.54747e-13 17.8748 0.00129213 0.00103918 8 -7.10543e-15 -1.13687e-13 -0.554405 -10.5022 -22.3288 0 -45 -1 -0.168259 13.0994 2.45038 -2.27374e-13 -41 -2 -2.3378 -4.76392 24.7349 -1.13687e-13 -7.5 12.5 -2.42657e-20 0.000294304 -0 -1.13687e-13 -1.73472e-18 4 -1.63386 -2.93362 44.0257 -8 7.10543e-15 1.13687e-13 -2.92572 -10.4068 16.7365 0 -45 -1 0.00870111 6.67382 -0.63355 0 -41 -2 5.62305 0.462414 1.9062 0 -7.5 12.5 2.07306e-33 1.24483e-17 -9.54166e-15 1.13687e-13 0 4 -0.128141 3.35485 18.5778 
-178.682 92.9303 1334.23 -1.51169 -1.29759 124.1 -2.27374e-13 8 -1.13687e-13 3.8476 18.4761 -10.8132 0 8 0 -0.966873 5.35612 4.11772 0 8 1.13687e-13 -0.435154 2.68908 2.04711 -2.27374e-13 8 0 -0.434295 2.68436 2.04349 0 17 1.13687e-13 1.21925 1.82951 -0.0716229 2.27374e-13 10.8 -1.13687e-13 2.85263 4.26689 -0.228093 5 17 0 -4.13625 -0.373679 -0.82244 6.45 5.68434e-14 1.13687e-13 0.484182 -0.532273 -0.747712 6.45 0 0 48.9984 -24.7183 30.408 3.41061e-13 -32.4 -2 -29.8267 -49.6584 -75.4184 -5.68434e-14 -25.65 2 31.533 -20.8368 -16.102 -0.5 -1.5 2.65 -34.5727 -36.6275 55.2091 0 -3.8 3.7 -0.0254525 21.7999 -0.0015592 0 -3 2.7 -0.00269479 35.2358 0.00530556 0 -1.9 1.6 -0 0 1.59028e-15 0 -8.3 1.9 -37.1595 7.59183 3.00483 -1.98952e-13 -4.5 0 -86.6878 -0.00135954 -0.00358256 -1.13687e-13 -3.4 0 -79.9422 0.00525266 0.000352637 -0.25 -2.2 0.4 -0 0 1.59028e-15 1.7053e-13 -8.3 1 -59.5858 8.41061 7.50999 -5.68434e-14 -4.65 1.13687e-13 -54.685 -0.00107883 0.00475689 -1.13687e-13 -3.3 -1.13687e-13 -90.0002 -0.000516187 -3.4191e-14 -0.5 -2.15 -0.8 -0 0 1.59028e-15 -2.27374e-13 -7.75 -0.2 -67.9182 6.04161 9.16903 -1.13687e-13 -3.8 -1.13687e-13 -58.425 0.00125741 -0.00147006 0 -3.4 0 -90.0002 0.00281162 -1.82882e-14 -0.75 -1.75 -1.85 -0 0 1.59028e-15 0 -7.15 -1 -82.93 0.833141 11.3448 0 -3 0 -38.5864 -0.012846 -0.00306435 1.13687e-13 -2.35 0 -27.2297 0.00405492 -0.00228952 -5 17 0 -0.197097 -3.56259 -2.10177 -6.45 -2.84217e-14 1.13687e-13 -1.16941 -0.000853815 0.702448 -6.45 -1.13687e-13 0 -2.75014 -25.1169 34.5684 0 -32.4 -2 39.9959 -81.6144 62.4857 -2.84217e-14 -25.65 2 -61.366 -10.6065 48.3606 0.5 -1.5 2.65 80.6208 28.1874 -110.212 2.27374e-13 -3.8 3.7 0.594243 22.3292 0.0287345 0 -3 2.7 0.0857279 56.4379 -0.0684645 -1.13687e-13 -1.9 1.6 -1.59028e-15 -3.18055e-15 -3.18055e-15 1.13687e-13 -8.3 1.9 31.3914 10.4815 -3.31106 5.68434e-14 -4.5 0 -2.16017e-09 0.000497044 0.000249009 -1.13687e-13 -3.4 -4.54747e-13 5.90929e-08 -0.00765945 0.000442038 0.25 -2.2 0.4 -1.59028e-15 -3.18055e-15 -3.18055e-15 0 -8.3 1 27.9728 13.2275 -3.89866 0 -4.65 -2.27374e-13 -9.55465e-13 4.48547e-06 1.21743e-05 -5.68434e-14 -3.3 0 -1.02833e-12 4.86153e-06 1.21101e-05 0.5 -2.15 -0.8 -1.59028e-15 -3.18055e-15 -3.18055e-15 -1.13687e-13 -7.75 -0.2 29.8701 11.8724 -4.21257 5.68434e-14 -3.8 2.27374e-13 2.89371 -0.000105883 0.00419647 -5.68434e-14 -3.4 0 2.78026 0.000891835 0.0067084 0.75 -1.75 -1.85 -1.59028e-15 -3.18055e-15 -3.18055e-15 -1.13687e-13 -7.15 -1 25.5798 9.54809 -3.16232 0 -3 2.27374e-13 23.1632 -0.000940788 0.0058549 -5.68434e-14 -2.35 -4.54747e-13 17.9126 0.00129213 0.00103918 8 -7.10543e-15 -1.13687e-13 -0.595717 -9.92912 -22.4274 0 -45 -1 -0.137273 12.0479 2.34518 -2.27374e-13 -41 -2 -2.31146 -4.28835 24.7192 0 -7.5 12.5 -6.90729e-20 0.000294304 6.36111e-15 0 0 4 -1.58736 -3.20951 44.3499 -8 7.10543e-15 0 -3.14652 -10.3247 16.6394 0 -45 -1 0.00806362 6.39783 -0.624151 0 -41 -2 5.59835 0.697119 2.04089 1.13687e-13 -7.5 12.5 -7.58303e-20 1.23694e-17 -3.18055e-15 0 0 4 -0.252445 3.07835 18.5924 
